<?xml version="1.0" encoding="iso-8859-1"?>
<!-- Generator: Adobe Illustrator 19.0.0, SVG Export Plug-In . SVG Version: 6.00 Build 0)  -->
<svg version="1.1" id="Capa_1" xmlns="http://www.w3.org/2000/svg" xmlns:xlink="http://www.w3.org/1999/xlink" x="0px" y="0px"
	 viewBox="0 0 475.429 475.429" style="enable-background:new 0 0 475.429 475.429;" xml:space="preserve">
<path style="fill:#D4E1F4;" d="M237.714,159.347c43.363,0,78.367,35.004,78.367,78.367s-35.004,78.367-78.367,78.367
	s-78.367-35.004-78.367-78.367S194.351,159.347,237.714,159.347z"/>
<path style="fill:#4DCFE0;" d="M237.714,101.878c122.775,0,222.041,135.837,222.041,135.837S360.49,373.551,237.714,373.551
	S15.673,237.714,15.673,237.714S114.939,101.878,237.714,101.878z M316.082,237.714c0-43.363-35.004-78.367-78.367-78.367
	s-78.367,35.004-78.367,78.367s35.004,78.367,78.367,78.367S316.082,281.078,316.082,237.714z"/>
<g>
	<path style="fill:#3A2C51;" d="M237.714,389.224c-53.812,0-111.804-24.555-167.184-71.576
		C29.257,282.645,4.18,248.163,3.135,247.118c-4.18-5.747-4.18-13.061,0-18.286c4.18-6.269,105.535-142.629,234.58-142.629
		c53.812,0,111.804,24.555,167.184,71.576c41.273,35.004,66.351,68.963,67.396,70.531c4.18,5.747,4.18,13.061,0,18.286
		C468.114,252.865,366.759,389.224,237.714,389.224z M35.527,237.714c24.555,29.78,107.102,120.163,202.188,120.163
		c95.608,0,177.633-90.384,202.188-120.163c-24.555-29.78-107.102-120.163-202.188-120.163
		C142.106,117.551,60.082,207.935,35.527,237.714z"/>
	<path style="fill:#3A2C51;" d="M237.714,331.755c-51.722,0-94.041-42.318-94.041-94.041s42.318-94.041,94.041-94.041
		s94.041,42.318,94.041,94.041S289.437,331.755,237.714,331.755z M237.714,175.02c-34.482,0-62.694,28.212-62.694,62.694
		s28.212,62.694,62.694,62.694s62.694-28.212,62.694-62.694S272.196,175.02,237.714,175.02z"/>
</g>
<g>
</g>
<g>
</g>
<g>
</g>
<g>
</g>
<g>
</g>
<g>
</g>
<g>
</g>
<g>
</g>
<g>
</g>
<g>
</g>
<g>
</g>
<g>
</g>
<g>
</g>
<g>
</g>
<g>
</g>
</svg>
